<?xml version="1.0" encoding="UTF-8"?>
<svg height="128px" viewBox="0 0 128 128" width="128px" xmlns="http://www.w3.org/2000/svg" xmlns:xlink="http://www.w3.org/1999/xlink">
    <filter id="a" height="100%" width="100%" x="0%" y="0%">
        <feColorMatrix color-interpolation-filters="sRGB" values="0 0 0 0 1 0 0 0 0 1 0 0 0 0 1 0 0 0 1 0"/>
    </filter>
    <clipPath id="b">
        <rect height="128" width="128"/>
    </clipPath>
    <clipPath id="c">
        <rect height="128" width="128"/>
    </clipPath>
    <mask id="d">
        <g filter="url(#a)">
            <g clip-path="url(#c)" filter="url(#a)">
                <g clip-path="url(#b)">
                    <path d="m 128 64 c 0 35.347656 -28.652344 64 -64 64 s -64 -28.652344 -64 -64 s 28.652344 -64 64 -64 s 64 28.652344 64 64 z m 0 0" fill="#ff0a53"/>
                    <path d="m 84.539062 31.75 c -2.027343 0.015625 -3.976562 1.132812 -4.933593 3 c -0.777344 1.519531 -0.664063 3.28125 -1.324219 4.835938 c -2.109375 4.984374 -5.878906 9.898437 -9.371094 13.984374 c -1.410156 1.652344 -3.132812 3.710938 -5.210937 4.535157 c -2.929688 1.160156 -4.273438 -3.25 -4.667969 -5.34375 c -0.613281 -3.28125 -0.441406 -6.625 -0.441406 -9.949219 c 0 -1.476562 0.191406 -3.128906 -0.1875 -4.570312 c -0.710938 -2.6875 -3.714844 -4.140626 -6.265625 -3.085938 c -2.234375 0.925781 -2.765625 3.128906 -3.347657 5.238281 c -0.546874 1.984375 -1.195312 3.9375 -1.761718 5.914063 c -2.929688 10.230468 -5.449219 20.195312 -11.144532 29.3125 c -1.523437 2.4375 -3.015624 4.894531 -4.652343 7.261718 c -0.925781 1.332032 -2.085938 2.839844 -1.953125 4.566407 c 0.292968 3.707031 5.101562 2.847656 7.261718 1.65625 c 4.746094 -2.625 7.101563 -8.222657 9.203126 -12.945313 c 2.027343 -4.554687 3.21875 -9.476562 5.316406 -13.984375 c 0.488281 1.480469 1.191406 2.851563 2.234375 4.023438 c 5.972656 6.730469 15.730469 1.976562 20.851562 -3.242188 c 1.5625 -1.59375 2.863281 -3.417969 4.34375 -5.085937 c -0.636719 9.683594 -2.605469 19.273437 0.453125 28.773437 c 1.265625 3.9375 4.558594 9.1875 9.496094 7.535157 c 1.613281 -0.542969 2.65625 -2.070313 2.609375 -3.769532 c -0.03125 -1.121094 -0.542969 -2.167968 -0.863281 -3.226562 c -0.621094 -2.035156 -1.183594 -4.109375 -1.652344 -6.183594 c -2.691406 -11.84375 -1.953125 -24.679688 0.152344 -36.574219 c 0.703125 -3.96875 3.152344 -10.304687 -2.128906 -12.316406 c -0.660157 -0.25 -1.34375 -0.367187 -2.015626 -0.359375 z m 0 0" fill="#ffffff"/>
                </g>
            </g>
        </g>
    </mask>
    <mask id="e">
        <g filter="url(#a)">
            <rect fill-opacity="0.8" height="184.32" width="184.32" x="-28.16" y="-28.16"/>
        </g>
    </mask>
    <linearGradient id="f" gradientTransform="matrix(0 0.37 -0.98462 0 295.38501 -30.360001)" gradientUnits="userSpaceOnUse" x1="300" x2="428" y1="235" y2="235">
        <stop offset="0" stop-color="#f9f06b"/>
        <stop offset="1" stop-color="#f5c211"/>
    </linearGradient>
    <clipPath id="g">
        <rect height="128" width="128"/>
    </clipPath>
    <clipPath id="h">
        <rect height="128" width="128"/>
    </clipPath>
    <path d="m 128 64 c 0 35.347656 -28.652344 64 -64 64 s -64 -28.652344 -64 -64 s 28.652344 -64 64 -64 s 64 28.652344 64 64 z m 0 0" fill="#ff0a53"/>
    <path d="m 84.539062 31.75 c -2.027343 0.015625 -3.976562 1.132812 -4.933593 3 c -0.777344 1.519531 -0.664063 3.28125 -1.324219 4.835938 c -2.109375 4.984374 -5.878906 9.898437 -9.371094 13.984374 c -1.410156 1.652344 -3.132812 3.710938 -5.210937 4.535157 c -2.929688 1.160156 -4.273438 -3.25 -4.667969 -5.34375 c -0.613281 -3.28125 -0.441406 -6.625 -0.441406 -9.949219 c 0 -1.476562 0.191406 -3.128906 -0.1875 -4.570312 c -0.710938 -2.6875 -3.714844 -4.140626 -6.265625 -3.085938 c -2.234375 0.925781 -2.765625 3.128906 -3.347657 5.238281 c -0.546874 1.984375 -1.195312 3.9375 -1.761718 5.914063 c -2.929688 10.230468 -5.449219 20.195312 -11.144532 29.3125 c -1.523437 2.4375 -3.015624 4.894531 -4.652343 7.261718 c -0.925781 1.332032 -2.085938 2.839844 -1.953125 4.566407 c 0.292968 3.707031 5.101562 2.847656 7.261718 1.65625 c 4.746094 -2.625 7.101563 -8.222657 9.203126 -12.945313 c 2.027343 -4.554687 3.21875 -9.476562 5.316406 -13.984375 c 0.488281 1.480469 1.191406 2.851563 2.234375 4.023438 c 5.972656 6.730469 15.730469 1.976562 20.851562 -3.242188 c 1.5625 -1.59375 2.863281 -3.417969 4.34375 -5.085937 c -0.636719 9.683594 -2.605469 19.273437 0.453125 28.773437 c 1.265625 3.9375 4.558594 9.1875 9.496094 7.535157 c 1.613281 -0.542969 2.65625 -2.070313 2.609375 -3.769532 c -0.03125 -1.121094 -0.542969 -2.167968 -0.863281 -3.226562 c -0.621094 -2.035156 -1.183594 -4.109375 -1.652344 -6.183594 c -2.691406 -11.84375 -1.953125 -24.679688 0.152344 -36.574219 c 0.703125 -3.96875 3.152344 -10.304687 -2.128906 -12.316406 c -0.660157 -0.25 -1.34375 -0.367187 -2.015626 -0.359375 z m 0 0" fill="#ffffff"/>
    <g mask="url(#d)">
        <g clip-path="url(#h)">
            <g mask="url(#e)">
                <g clip-path="url(#g)">
                    <path d="m 128 80.640625 v 47.359375 h -128 v -47.359375 z m 0 0" fill="url(#f)"/>
                    <path d="m 13.308594 80.640625 l 47.355468 47.359375 h 21.214844 l -47.359375 -47.359375 z m 42.421875 0 l 47.363281 47.359375 h 21.214844 l -47.363282 -47.359375 z m 42.429687 0 l 29.839844 29.839844 v -21.210938 l -8.628906 -8.628906 z m -98.160156 7.90625 v 21.214844 l 18.238281 18.238281 h 21.214844 z m 0 0"/>
                </g>
            </g>
        </g>
    </g>
</svg>
